<mxfile host="app.diagrams.net" modified="2020-11-25T11:39:39.723Z" agent="5.0 (X11)" etag="2-EuvyAF1FUkShd-Rya8" version="13.10.2" type="github">
  <diagram id="NsmuCzhm9A1a2L_3kVwT" name="Page-1">
    <mxGraphModel dx="1350" dy="804" grid="1" gridSize="10" guides="1" tooltips="1" connect="1" arrows="1" fold="1" page="1" pageScale="1" pageWidth="850" pageHeight="1100" math="0" shadow="0">
      <root>
        <mxCell id="0" />
        <mxCell id="1" parent="0" />
        <mxCell id="4eC2IW0U950ywPmt-rAN-8" value="" style="edgeStyle=orthogonalEdgeStyle;rounded=0;orthogonalLoop=1;jettySize=auto;html=1;" edge="1" parent="1" source="4eC2IW0U950ywPmt-rAN-1" target="4eC2IW0U950ywPmt-rAN-4">
          <mxGeometry relative="1" as="geometry" />
        </mxCell>
        <mxCell id="4eC2IW0U950ywPmt-rAN-1" value="Voltage Pred NN " style="rounded=1;whiteSpace=wrap;html=1;" vertex="1" parent="1">
          <mxGeometry x="120" y="150" width="120" height="40" as="geometry" />
        </mxCell>
        <mxCell id="4eC2IW0U950ywPmt-rAN-12" value="" style="edgeStyle=orthogonalEdgeStyle;rounded=0;orthogonalLoop=1;jettySize=auto;html=1;strokeWidth=1;" edge="1" parent="1" source="4eC2IW0U950ywPmt-rAN-2" target="4eC2IW0U950ywPmt-rAN-5">
          <mxGeometry relative="1" as="geometry" />
        </mxCell>
        <mxCell id="4eC2IW0U950ywPmt-rAN-2" value="Voltage Pred NN " style="rounded=1;whiteSpace=wrap;html=1;" vertex="1" parent="1">
          <mxGeometry x="120" y="230" width="120" height="40" as="geometry" />
        </mxCell>
        <mxCell id="4eC2IW0U950ywPmt-rAN-17" value="" style="edgeStyle=orthogonalEdgeStyle;rounded=0;orthogonalLoop=1;jettySize=auto;html=1;strokeWidth=1;" edge="1" parent="1" source="4eC2IW0U950ywPmt-rAN-3" target="4eC2IW0U950ywPmt-rAN-6">
          <mxGeometry relative="1" as="geometry" />
        </mxCell>
        <mxCell id="4eC2IW0U950ywPmt-rAN-3" value="Voltage Pred NN " style="rounded=1;whiteSpace=wrap;html=1;" vertex="1" parent="1">
          <mxGeometry x="120" y="350" width="120" height="40" as="geometry" />
        </mxCell>
        <mxCell id="4eC2IW0U950ywPmt-rAN-4" value="Current Pred NN" style="rounded=1;whiteSpace=wrap;html=1;" vertex="1" parent="1">
          <mxGeometry x="320" y="150" width="120" height="40" as="geometry" />
        </mxCell>
        <mxCell id="4eC2IW0U950ywPmt-rAN-5" value="Current Pred NN" style="rounded=1;whiteSpace=wrap;html=1;" vertex="1" parent="1">
          <mxGeometry x="320" y="230" width="120" height="40" as="geometry" />
        </mxCell>
        <mxCell id="4eC2IW0U950ywPmt-rAN-6" value="Current Pred NN" style="rounded=1;whiteSpace=wrap;html=1;" vertex="1" parent="1">
          <mxGeometry x="320" y="350" width="120" height="40" as="geometry" />
        </mxCell>
        <mxCell id="4eC2IW0U950ywPmt-rAN-9" value="" style="endArrow=classic;html=1;exitX=1;exitY=0.75;exitDx=0;exitDy=0;entryX=0;entryY=0;entryDx=0;entryDy=0;" edge="1" parent="1" source="4eC2IW0U950ywPmt-rAN-1" target="4eC2IW0U950ywPmt-rAN-6">
          <mxGeometry width="50" height="50" relative="1" as="geometry">
            <mxPoint x="480" y="410" as="sourcePoint" />
            <mxPoint x="530" y="360" as="targetPoint" />
          </mxGeometry>
        </mxCell>
        <mxCell id="4eC2IW0U950ywPmt-rAN-10" value="" style="endArrow=none;dashed=1;html=1;dashPattern=1 3;strokeWidth=3;" edge="1" parent="1">
          <mxGeometry width="50" height="50" relative="1" as="geometry">
            <mxPoint x="380" y="330" as="sourcePoint" />
            <mxPoint x="380" y="290" as="targetPoint" />
          </mxGeometry>
        </mxCell>
        <mxCell id="4eC2IW0U950ywPmt-rAN-11" value="" style="endArrow=none;dashed=1;html=1;dashPattern=1 3;strokeWidth=3;" edge="1" parent="1">
          <mxGeometry width="50" height="50" relative="1" as="geometry">
            <mxPoint x="179.5" y="330" as="sourcePoint" />
            <mxPoint x="179.5" y="290" as="targetPoint" />
          </mxGeometry>
        </mxCell>
        <mxCell id="4eC2IW0U950ywPmt-rAN-13" value="" style="endArrow=classic;html=1;strokeWidth=1;exitX=1;exitY=0.75;exitDx=0;exitDy=0;dashed=1;" edge="1" parent="1" source="4eC2IW0U950ywPmt-rAN-2">
          <mxGeometry width="50" height="50" relative="1" as="geometry">
            <mxPoint x="480" y="410" as="sourcePoint" />
            <mxPoint x="360" y="310" as="targetPoint" />
          </mxGeometry>
        </mxCell>
        <mxCell id="4eC2IW0U950ywPmt-rAN-14" value="" style="endArrow=classic;html=1;strokeWidth=1;exitX=1;exitY=0.5;exitDx=0;exitDy=0;dashed=1;" edge="1" parent="1" source="4eC2IW0U950ywPmt-rAN-3">
          <mxGeometry width="50" height="50" relative="1" as="geometry">
            <mxPoint x="250" y="270" as="sourcePoint" />
            <mxPoint x="360" y="320" as="targetPoint" />
          </mxGeometry>
        </mxCell>
        <mxCell id="4eC2IW0U950ywPmt-rAN-15" value="" style="endArrow=classic;html=1;strokeWidth=1;exitX=1;exitY=0.25;exitDx=0;exitDy=0;" edge="1" parent="1" source="4eC2IW0U950ywPmt-rAN-3">
          <mxGeometry width="50" height="50" relative="1" as="geometry">
            <mxPoint x="480" y="410" as="sourcePoint" />
            <mxPoint x="320" y="260" as="targetPoint" />
          </mxGeometry>
        </mxCell>
        <mxCell id="4eC2IW0U950ywPmt-rAN-18" value="" style="endArrow=classic;html=1;strokeWidth=1;exitX=1;exitY=0.25;exitDx=0;exitDy=0;entryX=0;entryY=0.75;entryDx=0;entryDy=0;" edge="1" parent="1" source="4eC2IW0U950ywPmt-rAN-2" target="4eC2IW0U950ywPmt-rAN-4">
          <mxGeometry width="50" height="50" relative="1" as="geometry">
            <mxPoint x="480" y="410" as="sourcePoint" />
            <mxPoint x="530" y="360" as="targetPoint" />
          </mxGeometry>
        </mxCell>
        <mxCell id="4eC2IW0U950ywPmt-rAN-19" value="" style="rounded=0;whiteSpace=wrap;html=1;" vertex="1" parent="1">
          <mxGeometry x="520" y="150" width="80" height="250" as="geometry" />
        </mxCell>
        <mxCell id="4eC2IW0U950ywPmt-rAN-21" value="N1" style="ellipse;whiteSpace=wrap;html=1;aspect=fixed;" vertex="1" parent="1">
          <mxGeometry x="537.5" y="160" width="45" height="45" as="geometry" />
        </mxCell>
        <mxCell id="4eC2IW0U950ywPmt-rAN-22" value="N2" style="ellipse;whiteSpace=wrap;html=1;aspect=fixed;" vertex="1" parent="1">
          <mxGeometry x="537.5" y="227.5" width="45" height="45" as="geometry" />
        </mxCell>
        <mxCell id="4eC2IW0U950ywPmt-rAN-23" value="Nn" style="ellipse;whiteSpace=wrap;html=1;aspect=fixed;" vertex="1" parent="1">
          <mxGeometry x="537.5" y="345" width="45" height="45" as="geometry" />
        </mxCell>
        <mxCell id="4eC2IW0U950ywPmt-rAN-24" value="" style="endArrow=none;dashed=1;html=1;dashPattern=1 3;strokeWidth=3;" edge="1" parent="1">
          <mxGeometry width="50" height="50" relative="1" as="geometry">
            <mxPoint x="559.5" y="330" as="sourcePoint" />
            <mxPoint x="559.5" y="290" as="targetPoint" />
          </mxGeometry>
        </mxCell>
        <mxCell id="4eC2IW0U950ywPmt-rAN-25" value="&lt;font color=&quot;#0000FF&quot;&gt;Nodes(arbitrary num of inputs)&lt;/font&gt;" style="text;html=1;strokeColor=none;fillColor=none;align=center;verticalAlign=middle;whiteSpace=wrap;rounded=0;" vertex="1" parent="1">
          <mxGeometry x="531.25" y="120" width="57.5" height="20" as="geometry" />
        </mxCell>
        <mxCell id="4eC2IW0U950ywPmt-rAN-27" value="&lt;font color=&quot;#0000FF&quot;&gt;Always two voltage inputs and two outputs&lt;br&gt;&lt;/font&gt;" style="text;html=1;strokeColor=none;fillColor=none;align=center;verticalAlign=middle;whiteSpace=wrap;rounded=0;" vertex="1" parent="1">
          <mxGeometry x="330" y="120" width="100" height="20" as="geometry" />
        </mxCell>
        <mxCell id="4eC2IW0U950ywPmt-rAN-29" value="" style="endArrow=classic;html=1;strokeWidth=1;exitX=1;exitY=0.5;exitDx=0;exitDy=0;" edge="1" parent="1" source="4eC2IW0U950ywPmt-rAN-4" target="4eC2IW0U950ywPmt-rAN-21">
          <mxGeometry width="50" height="50" relative="1" as="geometry">
            <mxPoint x="480" y="340" as="sourcePoint" />
            <mxPoint x="530" y="290" as="targetPoint" />
          </mxGeometry>
        </mxCell>
        <mxCell id="4eC2IW0U950ywPmt-rAN-31" value="" style="endArrow=classic;html=1;strokeWidth=1;exitX=1;exitY=0.75;exitDx=0;exitDy=0;entryX=0;entryY=0.5;entryDx=0;entryDy=0;" edge="1" parent="1" source="4eC2IW0U950ywPmt-rAN-4" target="4eC2IW0U950ywPmt-rAN-22">
          <mxGeometry width="50" height="50" relative="1" as="geometry">
            <mxPoint x="450" y="180" as="sourcePoint" />
            <mxPoint x="547.6116632202752" y="190.26116632202752" as="targetPoint" />
          </mxGeometry>
        </mxCell>
        <mxCell id="4eC2IW0U950ywPmt-rAN-33" value="" style="endArrow=classic;html=1;strokeWidth=1;exitX=1;exitY=0.5;exitDx=0;exitDy=0;" edge="1" parent="1" source="4eC2IW0U950ywPmt-rAN-5">
          <mxGeometry width="50" height="50" relative="1" as="geometry">
            <mxPoint x="480" y="340" as="sourcePoint" />
            <mxPoint x="540" y="250" as="targetPoint" />
          </mxGeometry>
        </mxCell>
        <mxCell id="4eC2IW0U950ywPmt-rAN-34" value="" style="endArrow=classic;html=1;strokeWidth=1;exitX=1;exitY=0.75;exitDx=0;exitDy=0;entryX=0;entryY=0.5;entryDx=0;entryDy=0;" edge="1" parent="1" source="4eC2IW0U950ywPmt-rAN-5" target="4eC2IW0U950ywPmt-rAN-23">
          <mxGeometry width="50" height="50" relative="1" as="geometry">
            <mxPoint x="480" y="340" as="sourcePoint" />
            <mxPoint x="530" y="290" as="targetPoint" />
          </mxGeometry>
        </mxCell>
        <mxCell id="4eC2IW0U950ywPmt-rAN-35" value="" style="endArrow=classic;html=1;strokeWidth=1;exitX=1;exitY=0.5;exitDx=0;exitDy=0;entryX=0;entryY=0.5;entryDx=0;entryDy=0;" edge="1" parent="1" source="4eC2IW0U950ywPmt-rAN-6" target="4eC2IW0U950ywPmt-rAN-21">
          <mxGeometry width="50" height="50" relative="1" as="geometry">
            <mxPoint x="480" y="340" as="sourcePoint" />
            <mxPoint x="530" y="290" as="targetPoint" />
          </mxGeometry>
        </mxCell>
        <mxCell id="4eC2IW0U950ywPmt-rAN-37" value="" style="endArrow=classic;html=1;strokeWidth=1;exitX=1;exitY=0.75;exitDx=0;exitDy=0;entryX=0;entryY=0.5;entryDx=0;entryDy=0;" edge="1" parent="1" source="4eC2IW0U950ywPmt-rAN-6" target="4eC2IW0U950ywPmt-rAN-23">
          <mxGeometry width="50" height="50" relative="1" as="geometry">
            <mxPoint x="480" y="340" as="sourcePoint" />
            <mxPoint x="530" y="290" as="targetPoint" />
          </mxGeometry>
        </mxCell>
        <mxCell id="4eC2IW0U950ywPmt-rAN-38" value="" style="endArrow=classic;html=1;strokeWidth=1;entryX=0;entryY=1;entryDx=0;entryDy=0;dashed=1;" edge="1" parent="1" target="4eC2IW0U950ywPmt-rAN-22">
          <mxGeometry width="50" height="50" relative="1" as="geometry">
            <mxPoint x="400" y="310" as="sourcePoint" />
            <mxPoint x="530" y="290" as="targetPoint" />
          </mxGeometry>
        </mxCell>
        <mxCell id="4eC2IW0U950ywPmt-rAN-39" value="" style="endArrow=classic;html=1;dashed=1;strokeWidth=1;entryX=0;entryY=0;entryDx=0;entryDy=0;" edge="1" parent="1" target="4eC2IW0U950ywPmt-rAN-23">
          <mxGeometry width="50" height="50" relative="1" as="geometry">
            <mxPoint x="400" y="320" as="sourcePoint" />
            <mxPoint x="530" y="290" as="targetPoint" />
          </mxGeometry>
        </mxCell>
      </root>
    </mxGraphModel>
  </diagram>
</mxfile>
